<?xml version="1.0" standalone="no"?>
<!DOCTYPE svg PUBLIC "-//W3C//DTD SVG 20010904//EN"
 "http://www.w3.org/TR/2001/REC-SVG-20010904/DTD/svg10.dtd">
<svg version="1.0" xmlns="http://www.w3.org/2000/svg"
 width="736.000000pt" height="736.000000pt" viewBox="0 0 736.000000 736.000000"
 preserveAspectRatio="xMidYMid meet">
<metadata>
Created by potrace 1.11, written by Peter Selinger 2001-2013
</metadata>
<g transform="translate(0.000000,736.000000) scale(0.100000,-0.100000)"
fill="#000000" stroke="none">
<path d="M3517 7014 c-1 -1 -58 -5 -127 -8 -183 -9 -221 -13 -410 -41 -25 -4
-58 -9 -75 -11 -40 -6 -197 -39 -270 -57 -99 -24 -156 -40 -190 -53 -22 -9
-42 -15 -45 -15 -3 1 -34 -9 -70 -21 -36 -12 -67 -23 -70 -23 -3 -1 -18 -7
-35 -14 -16 -7 -46 -19 -65 -26 -19 -7 -57 -23 -85 -36 -27 -12 -52 -23 -55
-23 -37 -7 -395 -208 -467 -262 -17 -13 -36 -24 -42 -24 -6 0 -11 -4 -11 -9 0
-5 -22 -23 -50 -41 -27 -18 -50 -36 -50 -41 0 -5 -5 -9 -11 -9 -6 0 -16 -6
-23 -12 -7 -7 -42 -38 -77 -68 -155 -132 -363 -360 -470 -515 -18 -27 -37 -52
-40 -55 -4 -3 -21 -30 -40 -60 -18 -30 -35 -57 -38 -60 -4 -3 -13 -18 -22 -35
-9 -16 -31 -57 -49 -90 -39 -70 -120 -233 -120 -240 0 -3 -9 -24 -20 -48 -44
-97 -133 -355 -156 -452 -1 -5 -9 -41 -19 -80 -20 -84 -22 -94 -35 -165 -6
-30 -12 -66 -15 -80 -7 -33 -14 -85 -30 -225 -14 -115 -18 -220 -20 -430 -1
-132 1 -244 3 -248 2 -5 6 -39 8 -75 6 -118 25 -280 41 -357 4 -16 7 -39 8
-50 1 -11 5 -33 9 -50 3 -16 8 -41 11 -54 9 -50 57 -225 82 -304 15 -45 28
-86 29 -92 12 -54 156 -363 231 -495 41 -74 182 -285 210 -315 10 -11 25 -29
33 -41 77 -109 318 -349 459 -454 18 -14 38 -30 45 -36 63 -58 318 -215 477
-294 82 -40 313 -138 344 -145 6 -1 17 -5 25 -8 25 -10 214 -67 235 -71 11 -2
58 -13 105 -25 47 -11 110 -25 140 -30 30 -6 69 -13 85 -16 62 -12 71 -13 125
-20 30 -3 71 -8 90 -11 187 -25 737 -25 945 1 17 2 59 6 95 9 35 4 76 8 90 11
42 7 212 33 260 40 24 4 47 8 50 10 3 2 21 6 40 9 35 5 102 19 150 30 14 3 41
9 60 13 47 9 50 10 53 13 1 1 13 4 27 6 14 2 86 20 160 39 74 20 142 37 151
40 62 14 462 136 499 152 8 3 17 7 20 8 22 6 58 18 75 25 11 4 81 31 155 60
144 56 388 169 457 213 l41 26 -4 73 c-4 72 -15 449 -15 478 3 97 2 150 -3
158 -3 6 -2 13 4 17 6 4 7 11 4 17 -4 6 -6 30 -5 54 0 24 1 67 1 94 0 54 0 67
0 105 -1 63 0 88 1 134 1 27 -1 53 -5 59 -3 6 -2 13 4 17 6 4 7 11 4 17 -7 11
-7 30 -1 193 4 100 21 200 38 221 5 6 6 14 2 17 -3 4 -2 7 4 7 6 0 14 12 17
26 10 40 81 110 147 144 32 17 59 28 59 26 0 -2 24 5 53 16 47 18 140 44 192
53 11 2 34 7 50 10 37 7 147 22 210 28 19 2 20 9 20 172 l0 170 -1608 0
c-1432 0 -1608 -1 -1611 -15 -8 -26 -5 -319 3 -324 4 -3 29 -8 57 -11 64 -9
78 -11 144 -25 30 -6 66 -13 80 -15 36 -6 145 -31 215 -50 103 -28 258 -109
315 -165 49 -49 90 -121 104 -185 3 -16 9 -41 12 -55 3 -14 5 -326 6 -694 l1
-669 -31 -26 c-66 -55 -87 -71 -99 -71 -7 0 -13 -4 -13 -9 0 -5 -15 -16 -32
-25 -18 -9 -55 -29 -83 -44 -44 -24 -80 -40 -210 -97 -27 -12 -64 -25 -90 -31
-5 -2 -44 -12 -85 -23 -41 -11 -97 -23 -125 -27 -27 -3 -53 -8 -56 -10 -15 -9
-186 -19 -324 -18 -139 0 -212 6 -275 20 -14 3 -38 7 -55 9 -42 5 -198 58
-270 90 -60 28 -193 105 -224 131 -9 7 -34 27 -55 44 -74 58 -182 168 -249
255 -77 99 -183 276 -237 392 -17 37 -35 75 -40 85 -5 9 -23 54 -40 100 -18
45 -38 99 -45 118 -7 19 -13 38 -14 42 -2 8 -8 29 -21 68 -9 27 -49 168 -56
201 -2 10 -6 29 -10 42 -16 69 -68 356 -79 447 -12 95 -16 127 -20 185 -3 33
-7 76 -9 95 -26 195 -26 877 -1 1135 2 22 7 69 10 105 4 36 9 79 11 95 3 17 7
44 9 60 1 17 6 53 11 80 4 28 8 57 9 65 0 9 4 21 9 28 4 6 5 12 3 12 -2 0 0
19 4 43 5 23 12 53 14 67 24 113 44 188 92 340 30 96 58 180 63 185 4 6 13 28
20 50 14 44 116 247 155 310 14 22 28 47 32 55 21 45 126 179 218 278 189 204
477 364 730 408 17 2 37 7 45 9 45 12 153 19 295 19 186 0 254 -4 261 -15 2
-5 10 -6 18 -3 20 8 215 -41 319 -80 51 -20 126 -54 166 -76 41 -22 77 -40 81
-40 4 0 15 -9 25 -20 10 -11 22 -20 27 -20 5 0 15 -6 22 -12 8 -7 24 -20 36
-28 77 -51 268 -239 340 -335 25 -33 48 -62 51 -65 9 -8 126 -184 148 -223 10
-19 25 -45 33 -58 7 -13 15 -26 18 -29 3 -3 19 -31 35 -63 17 -33 47 -91 67
-130 30 -59 137 -301 180 -407 6 -14 15 -34 19 -45 5 -11 31 -85 59 -165 28
-80 55 -155 60 -166 8 -21 14 -22 200 -22 l192 0 -6 322 c-9 426 -16 834 -20
1143 -2 139 -7 257 -11 262 -3 6 -1 11 5 11 6 0 8 5 5 10 -4 6 -8 108 -10 228
-2 119 -4 234 -4 255 l-1 37 -187 0 c-207 -1 -196 2 -278 -76 -17 -16 -59 -54
-94 -84 -35 -30 -70 -61 -79 -69 -13 -13 -21 -12 -66 11 -28 15 -67 33 -86 41
-19 8 -56 24 -82 36 -26 11 -52 21 -57 21 -5 0 -26 8 -47 17 -22 9 -43 18 -49
19 -12 3 -193 63 -215 71 -8 4 -19 7 -25 8 -5 2 -43 13 -84 25 -41 12 -83 24
-95 26 -40 9 -51 12 -51 15 0 1 -9 3 -20 5 -11 1 -29 5 -40 8 -48 12 -173 38
-205 42 -19 2 -46 6 -60 9 -50 10 -169 22 -295 31 -82 6 -394 12 -398 8z"/>
</g>
</svg>
