<svg width="110" height="29" viewBox="0 0 110 29" fill="none" xmlns="http://www.w3.org/2000/svg">
<path d="M21.6602 14.1113C21.3776 14.1387 21.127 14.1706 20.9082 14.207C20.6895 14.2435 20.416 14.3164 20.0879 14.4258C19.7142 14.5443 19.4681 14.7402 19.3496 15.0137C19.2311 15.2871 19.1719 15.5742 19.1719 15.875V18.1309C19.1719 18.5866 19.1764 18.9557 19.1855 19.2383C19.1947 19.5117 19.2083 19.8535 19.2266 20.2637C18.3151 20.8105 16.9661 21.3255 15.1797 21.8086C13.4023 22.2917 11.7663 22.5332 10.2715 22.5332C8.86784 22.5332 7.55078 22.319 6.32031 21.8906C5.08984 21.4622 4.00977 20.8197 3.08008 19.9629C2.15039 19.1152 1.41667 18.0625 0.878906 16.8047C0.35026 15.5469 0.0859375 14.1068 0.0859375 12.4844C0.0859375 10.9714 0.336589 9.57227 0.837891 8.28711C1.33919 7.00195 2.0638 5.89453 3.01172 4.96484C3.94141 4.04427 5.07161 3.33333 6.40234 2.83203C7.74219 2.33073 9.22331 2.08008 10.8457 2.08008C11.9486 2.08008 12.9694 2.2168 13.9082 2.49023C14.847 2.75456 15.6217 3.04167 16.2324 3.35156L17.0801 2.59961H18.2695L18.3926 9.68164H17.1895C16.4967 7.55794 15.6673 5.98112 14.7012 4.95117C13.735 3.92122 12.5137 3.40625 11.0371 3.40625C9.28711 3.40625 7.93359 4.17188 6.97656 5.70312C6.02865 7.23438 5.55469 9.3444 5.55469 12.0332C5.55469 14.8861 6.01953 17.1191 6.94922 18.7324C7.88802 20.3457 9.21419 21.1523 10.9277 21.1523C11.7298 21.1523 12.4408 21.0339 13.0605 20.7969C13.6895 20.5508 14.1771 20.2682 14.5234 19.9492V16.0117C14.5234 15.6836 14.4642 15.4102 14.3457 15.1914C14.2272 14.9635 13.9902 14.7676 13.6348 14.6035C13.3613 14.4759 13.0195 14.3711 12.6094 14.2891C12.1992 14.207 11.8574 14.1478 11.584 14.1113V13.0449H21.6602V14.1113ZM38.1484 21.7129C37.7474 21.8861 37.2734 22.0456 36.7266 22.1914C36.1797 22.3372 35.6009 22.4102 34.9902 22.4102C33.8691 22.4102 33.0443 22.2461 32.5156 21.918C31.987 21.5807 31.627 21.1022 31.4355 20.4824H31.3535C31.0436 20.7923 30.7428 21.0566 30.4512 21.2754C30.1686 21.4941 29.8633 21.681 29.5352 21.8359C29.1068 22.0365 28.6921 22.1823 28.291 22.2734C27.8991 22.3737 27.3477 22.4238 26.6367 22.4238C25.5794 22.4238 24.6771 22.1139 23.9297 21.4941C23.1823 20.8652 22.8086 20.0358 22.8086 19.0059C22.8086 18.4134 22.8906 17.9121 23.0547 17.502C23.2188 17.0827 23.4512 16.7135 23.752 16.3945C24.0254 16.1029 24.3398 15.8613 24.6953 15.6699C25.0599 15.4785 25.4564 15.3008 25.8848 15.1367C26.7051 14.8359 27.6895 14.526 28.8379 14.207C29.9863 13.8789 30.8249 13.5872 31.3535 13.332V12.0195C31.3535 11.7917 31.3353 11.4909 31.2988 11.1172C31.2624 10.7435 31.1849 10.429 31.0664 10.1738C30.9388 9.88216 30.7383 9.63607 30.4648 9.43555C30.1914 9.23503 29.8314 9.13477 29.3848 9.13477C28.9837 9.13477 28.6465 9.19401 28.373 9.3125C28.1087 9.42188 27.8945 9.53581 27.7305 9.6543C27.7578 9.83659 27.8353 10.1146 27.9629 10.4883C28.0905 10.862 28.1543 11.222 28.1543 11.5684C28.1543 11.7233 28.1133 11.9193 28.0312 12.1562C27.9492 12.3841 27.8307 12.5664 27.6758 12.7031C27.4661 12.8854 27.2292 13.0267 26.9648 13.127C26.7096 13.2272 26.3132 13.2773 25.7754 13.2773C25.0098 13.2773 24.431 13.0951 24.0391 12.7305C23.6471 12.3568 23.4512 11.8737 23.4512 11.2812C23.4512 10.7708 23.6517 10.3151 24.0527 9.91406C24.4629 9.50391 24.9596 9.16667 25.543 8.90234C26.1172 8.62891 26.778 8.41927 27.5254 8.27344C28.2728 8.11849 28.9655 8.04102 29.6035 8.04102C30.4876 8.04102 31.2988 8.0957 32.0371 8.20508C32.7754 8.30534 33.4408 8.51953 34.0332 8.84766C34.5983 9.16667 35.0449 9.63151 35.373 10.2422C35.7103 10.8438 35.8789 11.6322 35.8789 12.6074C35.8789 13.6374 35.8561 14.8587 35.8105 16.2715C35.7741 17.6842 35.7559 18.6139 35.7559 19.0605C35.7559 19.4707 35.8151 19.7943 35.9336 20.0312C36.0612 20.2682 36.2526 20.446 36.5078 20.5645C36.6628 20.6374 36.9043 20.6829 37.2324 20.7012C37.5697 20.7103 37.875 20.7148 38.1484 20.7148V21.7129ZM31.3535 14.5898C30.8431 14.763 30.3372 14.9635 29.8359 15.1914C29.3346 15.4102 28.9245 15.6426 28.6055 15.8887C28.2682 16.1439 28.0039 16.472 27.8125 16.873C27.6211 17.265 27.5254 17.7298 27.5254 18.2676C27.5254 18.9785 27.6849 19.4935 28.0039 19.8125C28.332 20.1315 28.7331 20.291 29.207 20.291C29.7083 20.291 30.1185 20.1908 30.4375 19.9902C30.7656 19.7806 31.0527 19.5254 31.2988 19.2246L31.3535 14.5898ZM47.5273 22H38.9551V21.002C39.1921 20.9837 39.4199 20.9609 39.6387 20.9336C39.8665 20.9062 40.0671 20.8607 40.2402 20.7969C40.5319 20.6875 40.7279 20.5326 40.8281 20.332C40.9375 20.1224 40.9922 19.849 40.9922 19.5117V4.36328C40.9922 4.01693 40.9193 3.69792 40.7734 3.40625C40.6367 3.10547 40.4499 2.8776 40.2129 2.72266C40.0306 2.60417 39.7526 2.49023 39.3789 2.38086C39.0143 2.27148 38.6908 2.20768 38.4082 2.18945V1.19141L45.2852 0.835938L45.4902 1.05469V19.334C45.4902 19.6712 45.5495 19.9447 45.668 20.1543C45.7865 20.3639 45.9779 20.528 46.2422 20.6465C46.4245 20.7285 46.6159 20.8014 46.8164 20.8652C47.0169 20.929 47.2539 20.9746 47.5273 21.002V22ZM57.1797 22H48.6074V21.002C48.8444 20.9837 49.0723 20.9609 49.291 20.9336C49.5189 20.9062 49.7194 20.8607 49.8926 20.7969C50.1842 20.6875 50.3802 20.5326 50.4805 20.332C50.5898 20.1224 50.6445 19.849 50.6445 19.5117V4.36328C50.6445 4.01693 50.5716 3.69792 50.4258 3.40625C50.2891 3.10547 50.1022 2.8776 49.8652 2.72266C49.6829 2.60417 49.4049 2.49023 49.0312 2.38086C48.6667 2.27148 48.3431 2.20768 48.0605 2.18945V1.19141L54.9375 0.835938L55.1426 1.05469V19.334C55.1426 19.6712 55.2018 19.9447 55.3203 20.1543C55.4388 20.3639 55.6302 20.528 55.8945 20.6465C56.0768 20.7285 56.2682 20.8014 56.4688 20.8652C56.6693 20.929 56.9062 20.9746 57.1797 21.002V22ZM74.1328 21.7129C73.7318 21.8861 73.2578 22.0456 72.7109 22.1914C72.1641 22.3372 71.5853 22.4102 70.9746 22.4102C69.8535 22.4102 69.0286 22.2461 68.5 21.918C67.9714 21.5807 67.6113 21.1022 67.4199 20.4824H67.3379C67.028 20.7923 66.7272 21.0566 66.4355 21.2754C66.153 21.4941 65.8477 21.681 65.5195 21.8359C65.0911 22.0365 64.6764 22.1823 64.2754 22.2734C63.8835 22.3737 63.332 22.4238 62.6211 22.4238C61.5638 22.4238 60.6615 22.1139 59.9141 21.4941C59.1667 20.8652 58.793 20.0358 58.793 19.0059C58.793 18.4134 58.875 17.9121 59.0391 17.502C59.2031 17.0827 59.4355 16.7135 59.7363 16.3945C60.0098 16.1029 60.3242 15.8613 60.6797 15.6699C61.0443 15.4785 61.4408 15.3008 61.8691 15.1367C62.6895 14.8359 63.6738 14.526 64.8223 14.207C65.9707 13.8789 66.8092 13.5872 67.3379 13.332V12.0195C67.3379 11.7917 67.3197 11.4909 67.2832 11.1172C67.2467 10.7435 67.1693 10.429 67.0508 10.1738C66.9232 9.88216 66.7227 9.63607 66.4492 9.43555C66.1758 9.23503 65.8158 9.13477 65.3691 9.13477C64.9681 9.13477 64.6309 9.19401 64.3574 9.3125C64.0931 9.42188 63.8789 9.53581 63.7148 9.6543C63.7422 9.83659 63.8197 10.1146 63.9473 10.4883C64.0749 10.862 64.1387 11.222 64.1387 11.5684C64.1387 11.7233 64.0977 11.9193 64.0156 12.1562C63.9336 12.3841 63.8151 12.5664 63.6602 12.7031C63.4505 12.8854 63.2135 13.0267 62.9492 13.127C62.694 13.2272 62.2975 13.2773 61.7598 13.2773C60.9941 13.2773 60.4154 13.0951 60.0234 12.7305C59.6315 12.3568 59.4355 11.8737 59.4355 11.2812C59.4355 10.7708 59.6361 10.3151 60.0371 9.91406C60.4473 9.50391 60.944 9.16667 61.5273 8.90234C62.1016 8.62891 62.7624 8.41927 63.5098 8.27344C64.2572 8.11849 64.9499 8.04102 65.5879 8.04102C66.472 8.04102 67.2832 8.0957 68.0215 8.20508C68.7598 8.30534 69.4251 8.51953 70.0176 8.84766C70.5827 9.16667 71.0293 9.63151 71.3574 10.2422C71.6947 10.8438 71.8633 11.6322 71.8633 12.6074C71.8633 13.6374 71.8405 14.8587 71.7949 16.2715C71.7585 17.6842 71.7402 18.6139 71.7402 19.0605C71.7402 19.4707 71.7995 19.7943 71.918 20.0312C72.0456 20.2682 72.237 20.446 72.4922 20.5645C72.6471 20.6374 72.8887 20.6829 73.2168 20.7012C73.554 20.7103 73.8594 20.7148 74.1328 20.7148V21.7129ZM67.3379 14.5898C66.8275 14.763 66.3216 14.9635 65.8203 15.1914C65.319 15.4102 64.9089 15.6426 64.5898 15.8887C64.2526 16.1439 63.9883 16.472 63.7969 16.873C63.6055 17.265 63.5098 17.7298 63.5098 18.2676C63.5098 18.9785 63.6693 19.4935 63.9883 19.8125C64.3164 20.1315 64.7174 20.291 65.1914 20.291C65.6927 20.291 66.1029 20.1908 66.4219 19.9902C66.75 19.7806 67.0371 19.5254 67.2832 19.2246L67.3379 14.5898ZM93.2324 22H85.002V21.002C85.1751 20.9837 85.3848 20.9609 85.6309 20.9336C85.877 20.9062 86.0638 20.8607 86.1914 20.7969C86.3828 20.6966 86.5195 20.5508 86.6016 20.3594C86.6836 20.168 86.7246 19.8854 86.7246 19.5117V13.1133C86.7246 12.1836 86.5514 11.4863 86.2051 11.0215C85.8678 10.5475 85.3665 10.3105 84.7012 10.3105C84.3366 10.3105 83.9948 10.3652 83.6758 10.4746C83.3659 10.584 83.0605 10.7435 82.7598 10.9531C82.4954 11.1354 82.2812 11.3223 82.1172 11.5137C81.9622 11.7051 81.8301 11.8737 81.7207 12.0195V19.3613C81.7207 19.6803 81.7663 19.9492 81.8574 20.168C81.9486 20.3776 82.099 20.5371 82.3086 20.6465C82.4544 20.7285 82.6367 20.8014 82.8555 20.8652C83.0742 20.929 83.2884 20.9746 83.498 21.002V22H75.1855V21.002C75.4134 20.9837 75.6413 20.9609 75.8691 20.9336C76.1061 20.8971 76.3066 20.8516 76.4707 20.7969C76.7624 20.6966 76.9629 20.5417 77.0723 20.332C77.1816 20.1224 77.2363 19.849 77.2363 19.5117V11.5547C77.2363 11.2721 77.1634 10.9941 77.0176 10.7207C76.8717 10.4473 76.6803 10.224 76.4434 10.0508C76.2793 9.94141 76.0697 9.85026 75.8145 9.77734C75.5684 9.70443 75.2949 9.6543 74.9941 9.62695V8.62891L81.5156 8.27344L81.7207 8.47852V10.4609H81.7754C82.0306 10.2331 82.3405 9.95964 82.7051 9.64062C83.0697 9.32161 83.4069 9.06185 83.7168 8.86133C84.054 8.64258 84.4961 8.45573 85.043 8.30078C85.5898 8.14583 86.1732 8.06836 86.793 8.06836C88.2786 8.06836 89.3906 8.49219 90.1289 9.33984C90.8763 10.1784 91.25 11.2949 91.25 12.6895V19.3887C91.25 19.7259 91.3001 19.9948 91.4004 20.1953C91.5007 20.3958 91.6875 20.5553 91.9609 20.6738C92.1068 20.7376 92.2845 20.8014 92.4941 20.8652C92.7129 20.929 92.959 20.9746 93.2324 21.002V22ZM109.83 9.96875H106.822C107.178 10.3698 107.442 10.7936 107.615 11.2402C107.798 11.6868 107.889 12.1517 107.889 12.6348C107.889 13.2637 107.72 13.8561 107.383 14.4121C107.046 14.959 106.604 15.4056 106.057 15.752C105.501 16.1074 104.849 16.3854 104.102 16.5859C103.354 16.7865 102.543 16.8867 101.668 16.8867H99.4395C99.3301 16.9688 99.207 17.1009 99.0703 17.2832C98.9427 17.4564 98.8789 17.625 98.8789 17.7891C98.8789 18.1901 99.0384 18.4681 99.3574 18.623C99.6764 18.778 100.255 18.8646 101.094 18.8828C101.923 18.901 102.762 18.9375 103.609 18.9922C104.457 19.0378 105.063 19.0651 105.428 19.0742C105.956 19.1016 106.48 19.2109 107 19.4023C107.52 19.5846 107.971 19.8262 108.354 20.127C108.773 20.446 109.119 20.8561 109.393 21.3574C109.666 21.8496 109.803 22.4193 109.803 23.0664C109.803 23.7591 109.634 24.4108 109.297 25.0215C108.969 25.6322 108.463 26.1608 107.779 26.6074C107.059 27.0723 106.193 27.4323 105.182 27.6875C104.179 27.9427 102.935 28.0703 101.449 28.0703C99.0521 28.0703 97.2292 27.7786 95.9805 27.1953C94.7318 26.612 94.1074 25.737 94.1074 24.5703C94.1074 23.8503 94.4447 23.2578 95.1191 22.793C95.7936 22.3281 96.8418 22.0729 98.2637 22.0273V21.8633C97.4251 21.5807 96.7689 21.207 96.2949 20.7422C95.8301 20.2682 95.5977 19.7214 95.5977 19.1016C95.5977 18.7188 95.6888 18.3952 95.8711 18.1309C96.0625 17.8665 96.304 17.6341 96.5957 17.4336C96.8509 17.2604 97.1608 17.1146 97.5254 16.9961C97.89 16.8685 98.1953 16.7682 98.4414 16.6953V16.5449C97.2109 16.0892 96.304 15.5332 95.7207 14.877C95.1465 14.2207 94.8594 13.4186 94.8594 12.4707C94.8594 11.1309 95.4746 10.0599 96.7051 9.25781C97.9447 8.45573 99.5124 8.05469 101.408 8.05469C102.028 8.05469 102.625 8.10938 103.199 8.21875C103.783 8.31901 104.225 8.41016 104.525 8.49219H109.83V9.96875ZM103.418 12.5801C103.418 11.5137 103.249 10.6706 102.912 10.0508C102.575 9.43099 102.055 9.12109 101.354 9.12109C100.998 9.12109 100.688 9.20768 100.424 9.38086C100.16 9.54492 99.9453 9.78646 99.7812 10.1055C99.6263 10.4154 99.5215 10.7799 99.4668 11.1992C99.4121 11.6094 99.3848 12.0332 99.3848 12.4707C99.3848 13.4642 99.5579 14.2799 99.9043 14.918C100.251 15.556 100.743 15.875 101.381 15.875C102.037 15.875 102.538 15.5879 102.885 15.0137C103.24 14.4395 103.418 13.6283 103.418 12.5801ZM105.715 24.0645C105.715 23.7546 105.628 23.4447 105.455 23.1348C105.282 22.834 104.895 22.5879 104.293 22.3965C103.965 22.3418 103.423 22.3053 102.666 22.2871C101.919 22.2689 100.889 22.2598 99.5762 22.2598C99.2572 22.5332 98.9883 22.8568 98.7695 23.2305C98.5599 23.6042 98.4551 24.0553 98.4551 24.584C98.4551 24.8118 98.5189 25.0625 98.6465 25.3359C98.7741 25.6094 98.9746 25.8646 99.248 26.1016C99.5671 26.3659 99.9225 26.571 100.314 26.7168C100.706 26.8717 101.299 26.9492 102.092 26.9492C103.268 26.9492 104.165 26.7214 104.785 26.2656C105.405 25.8099 105.715 25.0762 105.715 24.0645Z" fill="black"/>
</svg>
